<?xml version="1.0" standalone="no"?><svg xmlns="http://www.w3.org/2000/svg" viewBox="0 0 1440 320"><path fill="#f3f4f5" fill-opacity="1" d="M0,320L30,272C60,224,120,128,180,112C240,96,300,160,360,165.3C420,171,480,117,540,106.7C600,96,660,128,720,149.3C780,171,840,181,900,165.3C960,149,1020,107,1080,96C1140,85,1200,107,1260,117.3C1320,128,1380,128,1410,128L1440,128L1440,320L1410,320C1380,320,1320,320,1260,320C1200,320,1140,320,1080,320C1020,320,960,320,900,320C840,320,780,320,720,320C660,320,600,320,540,320C480,320,420,320,360,320C300,320,240,320,180,320C120,320,60,320,30,320L0,320Z"></path></svg>